<?xml version="1.0" encoding="UTF-8" standalone="no"?>
<svg
   version="1.1"
   width="997.00006"
   height="523.70734"
   id="svg2"
   inkscape:version="1.1.1 (3bf5ae0d25, 2021-09-20)"
   sodipodi:docname="Austria_EU.svg"
   xmlns:inkscape="http://www.inkscape.org/namespaces/inkscape"
   xmlns:sodipodi="http://sodipodi.sourceforge.net/DTD/sodipodi-0.dtd"
   xmlns:xlink="http://www.w3.org/1999/xlink"
   xmlns="http://www.w3.org/2000/svg"
   xmlns:svg="http://www.w3.org/2000/svg"
   xmlns:rdf="http://www.w3.org/1999/02/22-rdf-syntax-ns#"
   xmlns:cc="http://creativecommons.org/ns#"
   xmlns:dc="http://purl.org/dc/elements/1.1/">
  <metadata
     id="metadata43">
    <rdf:RDF>
      <cc:Work
         rdf:about="">
        <dc:format>image/svg+xml</dc:format>
        <dc:type
           rdf:resource="http://purl.org/dc/dcmitype/StillImage" />
      </cc:Work>
    </rdf:RDF>
  </metadata>
  <sodipodi:namedview
     pagecolor="#ffffff"
     bordercolor="#666666"
     borderopacity="1"
     objecttolerance="10"
     gridtolerance="10"
     guidetolerance="10"
     inkscape:pageopacity="0"
     inkscape:pageshadow="2"
     inkscape:window-width="1366"
     inkscape:window-height="697"
     id="namedview41"
     showgrid="false"
     inkscape:zoom="0.43703704"
     inkscape:cx="509.11017"
     inkscape:cy="250.55085"
     inkscape:window-x="-8"
     inkscape:window-y="-8"
     inkscape:window-maximized="1"
     inkscape:current-layer="svg2"
     inkscape:pagecheckerboard="0"
     inkscape:snap-page="true" />
  <desc
     id="desc4">European flag</desc>
  <defs
     id="defs6">
    <inkscape:perspective
       sodipodi:type="inkscape:persp3d"
       inkscape:vp_x="0 : 270 : 1"
       inkscape:vp_y="0 : 1000 : 0"
       inkscape:vp_z="810 : 270 : 1"
       inkscape:persp3d-origin="405 : 180 : 1"
       id="perspective45" />
    <g
       id="s">
      <g
         id="c">
        <path
           id="t"
           d="M 0,0 V 1 H 0.5 z"
           transform="matrix(0.95105652,0.30901699,-0.30901699,0.95105652,0,-1)" />
        <use
           xlink:href="#t"
           transform="scale(-1,1)"
           id="use11"
           x="0"
           y="0"
           width="810"
           height="540" />
      </g>
      <g
         id="a">
        <use
           xlink:href="#c"
           transform="matrix(0.30901699,0.95105652,-0.95105652,0.30901699,0,0)"
           id="use14"
           x="0"
           y="0"
           width="810"
           height="540" />
        <use
           xlink:href="#c"
           transform="matrix(-0.80901699,0.58778525,-0.58778525,-0.80901699,0,0)"
           id="use16"
           x="0"
           y="0"
           width="810"
           height="540" />
      </g>
      <use
         xlink:href="#a"
         transform="scale(-1,1)"
         id="use18"
         x="0"
         y="0"
         width="810"
         height="540" />
    </g>
    <inkscape:perspective
       id="perspective2826"
       inkscape:persp3d-origin="0.5 : 0.33333333 : 1"
       inkscape:vp_z="1 : 0.5 : 1"
       inkscape:vp_y="0 : 1000 : 0"
       inkscape:vp_x="0 : 0.5 : 1"
       sodipodi:type="inkscape:persp3d" />
    <inkscape:perspective
       id="perspective2962"
       inkscape:persp3d-origin="0.5 : 0.33333333 : 1"
       inkscape:vp_z="1 : 0.5 : 1"
       inkscape:vp_y="0 : 1000 : 0"
       inkscape:vp_x="0 : 0.5 : 1"
       sodipodi:type="inkscape:persp3d" />
    <inkscape:perspective
       id="perspective4192"
       inkscape:persp3d-origin="0.5 : 0.33333333 : 1"
       inkscape:vp_z="1 : 0.5 : 1"
       inkscape:vp_y="0 : 1000 : 0"
       inkscape:vp_x="0 : 0.5 : 1"
       sodipodi:type="inkscape:persp3d" />
    <inkscape:perspective
       id="perspective2857"
       inkscape:persp3d-origin="0.5 : 0.33333333 : 1"
       inkscape:vp_z="1 : 0.5 : 1"
       inkscape:vp_y="0 : 1000 : 0"
       inkscape:vp_x="0 : 0.5 : 1"
       sodipodi:type="inkscape:persp3d" />
    <inkscape:perspective
       id="perspective2826-1"
       inkscape:persp3d-origin="0.5 : 0.33333333 : 1"
       inkscape:vp_z="1 : 0.5 : 1"
       inkscape:vp_y="0 : 1000 : 0"
       inkscape:vp_x="0 : 0.5 : 1"
       sodipodi:type="inkscape:persp3d" />
    <clipPath
       clipPathUnits="userSpaceOnUse"
       id="clipPath1536">
      <path
         d="m 77.107897,426.23432 3.761675,-2.08602 3.557338,0.90181 5.217381,-2.70542 3.320161,-4.20841 h 3.32016 l 6.877458,-11.12225 -1.18579,-2.10421 3.32016,-4.50901 2.3715,0.30059 0.47437,-4.50901 5.21739,-8.11623 -1.1858,-11.72345 -4.26873,-3.00602 1.42285,-3.60721 -1.66008,-3.90781 2.3716,-4.50902 -3.08302,-4.80963 6.40318,-2.4048 0.23714,2.70541 -0.94866,3.90781 4.98024,4.20842 h 6.40318 l 0.23714,-3.60721 3.79454,-4.50902 3.79444,2.70541 6.64032,-0.3006 3.32016,5.11022 4.7431,-0.30061 0.94856,3.90783 h 4.7431 l 8.3004,-4.20842 4.26873,4.80962 -5.21738,4.50902 1.42294,3.30661 4.98024,-0.6012 8.3004,13.52705 -2.37151,4.20842 5.45453,3.90781 5.21738,-1.8036 6.87746,0.90179 5.69167,-7.81562 4.98024,-1.80362 3.32016,-0.90179 2.37159,2.40481 -2.60874,5.41082 4.03168,0.90181 3.5573,-3.60723 0.71143,-3.60721 5.45452,-6.31263 6.87746,0.30062 0.71152,-4.50903 -2.84588,-0.90181 6.16604,-9.61923 7.1146,2.10421 7.82612,-1.20241 3.32016,-4.80962 v -8.11624 l 5.45452,-6.01201 4.26882,2.10421 12.56912,-1.503 7.82612,1.80359 0.94857,-4.80961 17.7866,-6.01203 3.08301,1.503 1.66008,-1.503 13.51779,2.10421 5.21738,-1.503 -0.47437,-10.52105 -3.08293,-9.61924 4.98024,-3.60721 4.26872,-4.20842 1.1858,2.10421 -2.60874,4.50902 1.89723,5.71142 8.3004,-3.60722 4.7431,1.80362 8.06326,-2.70542 2.3715,6.61323 7.35183,7.81563 3.55731,-3.30662 3.08302,1.20242 4.03158,-8.71745 4.03158,0.30061 3.79454,-2.40482 4.98024,0.30062 2.3715,-0.90182 4.03168,2.70541 -0.23723,4.80963 5.92889,3.60721 1.66008,4.20841 -3.08302,0.60121 -1.66008,6.61323 3.08302,8.11623 h 3.79444 l 5.69176,6.31262 0.23714,2.70542 9.01183,6.91383 3.32016,-2.70542 2.60873,4.20842 1.66008,-4.80962 3.08302,-1.503 c 0,0 1.66008,-5.11023 0.47428,-5.11023 -1.18579,0 -2.60873,-3.60722 -2.60873,-3.60722 l 0.23714,-3.30661 2.13445,-3.90781 -2.13445,-3.00601 0.94866,-3.00602 h 2.3715 l 0.23723,-7.81563 3.08293,-4.20841 -2.84579,-6.61323 -1.89722,-6.01201 -5.21747,-6.61325 -3.5573,3.90783 h -8.06326 l -1.66008,-3.00602 2.37159,-6.31262 -0.23714,-6.61323 3.5573,-5.11021 4.26873,-11.42285 -5.92881,-12.02405 -5.45452,-10.22045 -3.79453,-1.8036 -1.66008,-2.40482 -1.66008,-2.70541 v -4.20841 l -0.94857,-4.20842 -3.08302,-3.60721 -5.92889,-4.50902 -2.37151,-6.61322 -1.66008,-7.81564 2.37151,-1.50301 3.32016,0.6012 -0.23715,-3.6072 1.66008,-3.00602 3.79454,-2.40481 0.47428,-3.90781 v -3.90782 l 2.84579,-2.10421 h 4.26881 l 3.79445,-0.9018 3.08302,-0.9018 1.18579,-2.70541 2.37151,-5.11023 0.94865,-3.00601 3.08302,-0.6012 h 3.5573 l 1.89723,-1.50301 1.42293,-1.8036 2.60865,-0.30061 2.37159,-2.70541 4.03159,-2.4048 9.24897,-0.3006 2.84587,-1.20241 5.21738,-4.80962 3.55731,-5.11022 3.32025,-4.50902 2.3715,-3.60721 0.71143,-3.60722 0.94865,-3.006 0.71143,-3.00602 v -4.50902 l -0.23715,-4.20842 v -3.60722 l 0.71152,-3.60721 2.3715,-4.50901 -1.66008,-5.41083 -1.18579,-4.20841 v -3.30662 l 2.37159,-2.4048 3.32016,-1.80362 3.5573,-1.2024 3.08293,2.7054 1.89731,2.40483 2.84588,-1.20241 1.65999,-0.3006 2.13445,2.1042 3.79445,0.30061 0.94856,2.40481 1.42294,2.10421 3.5573,2.7054 2.13446,1.20241 1.66008,-2.70541 0.47428,-7.51503 3.08302,-0.6012 3.79444,-4.50902 v -4.80962 l 2.84588,-4.20842 -2.60874,-14.729458 1.89731,-3.607213 -4.98033,-5.110217 2.13446,-3.306622 0.94856,-3.006007 0.94866,-4.809625 3.08302,0.601206 3.32007,0.300603 9.24905,9.619239 4.7431,0.601206 3.32016,6.312629 3.32016,2.705404 v 3.607213 l -3.5573,2.10421 v 2.705415 l 2.37151,2.705404 0.23714,2.404813 4.26881,3.00601 14.46635,0.3006 3.79444,2.70542 3.5574,0.30059 3.08292,0.6012 3.08302,1.20242 3.5574,3.006 3.5573,-4.80962 2.60864,-3.90781 2.84588,0.30059 2.13445,-6.01201 v -6.613232 l 4.74301,-1.503003 2.84588,4.208419 3.08293,1.803595 3.08302,1.803618 2.37159,-3.006019 2.37151,-2.404801 2.13445,1.503004 0.71142,3.607213 h 3.79445 l 1.18579,4.809616 3.55731,0.3006 1.66008,-7.214426 -0.47429,-10.521048 1.66008,-8.116224 7.35175,-9.919841 1.18571,-11.122243 h 6.87755 l 6.16595,1.202401 2.60873,1.803606 h 1.42294 l 1.42294,-3.907816 -1.66008,-3.907816 -0.94866,-3.907805 1.42294,-5.711423 0.23714,-3.607224 -0.47428,-3.907816 0.94857,-4.809614 0.71151,-4.509022 L 630.59282,9.9198305 632.01576,5.1102167 632.49005,0 l 8.53754,0.60119456 1.89731,2.40481264 h 8.30031 l 3.08302,6.0120257 -2.37151,5.4108201 3.55731,0.601194 3.5573,-3.607201 5.45452,0.300591 1.66017,-9.3186359 3.79444,3.3066217 4.26873,-2.1042211 9.24906,5.7114228 H 689.17 l 4.50587,7.8156435 6.87746,1.803595 5.92881,0.901809 4.03167,2.705416 2.84588,2.404801 1.18571,2.10421 8.53763,0.901809 1.18571,-3.006019 0.47437,-2.104198 h 6.40318 l 13.28055,8.71743 2.3715,4.809625 16.36366,11.723437 h 5.21739 l 2.3715,-2.404801 8.53763,2.10421 7.82603,-0.901809 h 1.1858 l 1.66008,2.104209 1.89722,-3.607213 h 2.13445 l 2.13436,2.404813 5.21739,-4.809626 3.79444,-13.527055 4.7431,1.503004 3.5573,-3.006007 8.77468,6.012026 4.98024,-3.006019 3.55731,4.208419 v 5.110217 l 0.94865,3.907816 2.37151,-1.503004 0.71151,-2.705404 5.21738,0.901798 3.32016,4.809625 h 6.87746 l 4.98025,-3.607213 3.5573,5.410808 4.03158,16.232471 1.1858,5.110228 v 4.509011 l 2.37159,8.416838 -3.32025,7.214427 -2.84578,6.613231 -2.84588,7.815617 0.23714,15.33067 -1.66008,2.70541 1.42294,5.41082 6.16604,4.20842 0.94856,5.41082 2.60874,4.20842 0.94865,1.80361 3.55731,1.2024 v 6.91383 l 1.42293,4.80962 0.94857,4.50902 1.42294,6.31261 2.60873,0.60121 3.08302,4.20842 2.84579,1.20241 h 2.13445 l 3.08293,4.80962 0.71152,4.50902 0.23705,6.91382 1.1858,6.91384 6.87746,0.30059 1.89731,3.006 -5.45461,9.91985 0.94865,3.30662 -1.1858,5.11021 0.47429,9.31865 -4.03159,6.01202 -5.45452,1.503 v 1.80361 l 5.92881,5.41082 1.42293,3.30662 -1.18579,3.30661 0.23714,2.70541 2.60873,3.60722 -0.23714,9.01803 2.84588,6.01203 -6.87755,0.3006 -16.83785,6.31263 -2.84588,-5.71144 -2.84588,10.52105 -8.77468,-3.00602 -3.08302,-2.1042 -1.42294,-4.80962 -1.89722,-1.503 h -2.13437 l -0.71151,-2.10421 -4.03149,0.3006 -3.79454,-3.60723 -3.79453,2.40483 h -5.21729 l -1.1858,3.30661 1.66008,5.41082 -5.69175,3.90781 -2.37151,5.11022 h -3.08302 l -2.3715,4.50902 8.3004,4.20842 3.32016,-1.50301 9.24897,4.50903 4.03158,-2.10422 4.74319,5.11023 0.47419,8.41684 5.21738,4.2084 0.23724,5.11022 -2.60874,2.70542 -3.32007,1.8036 0.94856,4.50903 1.1858,3.90781 -2.84588,4.50902 -7.82611,9.31863 -5.45453,0.30061 -2.84587,4.20841 -3.32016,-4.20841 h -2.13437 l -1.18579,3.00601 1.42293,5.71142 -0.71142,8.41684 3.32016,0.9018 0.23714,7.51503 -1.89722,4.20842 0.23714,5.71142 -0.23714,9.01803 -1.66008,3.30661 1.66008,4.50903 h 1.89722 l 1.42294,3.30661 -1.42294,2.40481 1.1858,5.41083 4.26873,-3.90783 3.08301,-0.30059 1.66008,2.7054 -1.1857,3.30661 -1.42294,1.20242 -1.89731,2.70541 -2.13437,3.00601 2.60874,5.71141 h 3.5573 l -1.66008,4.20842 -5.9289,3.30662 -0.71142,3.30661 h 4.03159 l 3.32016,1.2024 1.18579,2.10421 -1.18579,1.50301 -4.50596,0.3006 -1.89722,-0.6012 -2.13437,2.10421 -3.5573,-2.70541 -2.84588,2.10421 -3.08301,-1.20241 -4.03159,2.1042 h -1.89722 l -1.66008,-1.8036 -0.47437,3.60722 -0.94857,3.60722 -2.3715,3.006 -0.94866,3.90782 -0.94866,2.70541 -4.26872,0.6012 -0.94866,4.80961 -2.3715,3.90783 -4.50596,8.71743 -4.50587,1.503 -4.50595,4.50903 -3.79445,3.3066 -3.79453,1.20243 1.89722,3.90782 v 8.71741 l 0.71151,7.81565 2.13437,4.20842 2.84588,0.60118 0.47428,3.60723 2.13445,2.4048 v 7.81564 h -2.13445 l -4.98024,-8.11623 -2.37151,1.20242 -13.04341,-6.61327 -7.11469,2.40486 -4.98024,4.509 -4.03158,1.20238 h -2.3716 l -2.84588,-2.10421 h -3.32016 l -1.42294,5.41084 -0.71142,2.10421 -3.79444,-1.80362 -6.64032,3.60723 v 3.90782 4.509 l -3.79445,3.90783 -5.45452,0.90178 -3.08302,-3.60717 -2.37159,-3.00604 h -4.50587 l -11.85779,2.10421 -9.96048,1.20242 -4.98015,-2.4048 -9.24906,2.10421 -8.3004,2.4048 -2.60874,6.61321 -1.42294,3.00598 -4.74301,-6.31261 -2.84587,5.11024 -6.87746,0.90178 -5.21739,23.74751 -9.72334,2.7054 -2.60864,8.11623 -3.08302,0.60124 -2.13436,4.50901 -9.01183,3.30658 v 7.81564 l -2.13445,4.509 -6.87746,-8.11623 -2.13437,2.70545 -3.32016,-1.80361 -2.84587,-2.4048 -2.84588,-3.90782 -8.77469,2.40479 -4.74309,2.10421 -3.32007,-2.10421 -7.58898,1.50303 -8.06326,1.50296 -5.21738,-9.6192 -7.82612,-1.20242 -7.1146,0.60118 -8.77469,-7.51499 -8.06326,0.3006 -5.69166,4.20841 -10.43485,-1.20244 -12.33199,-5.71136 -4.03158,3.00597 -3.79445,-4.509 -3.79453,1.20237 -3.5573,-3.60717 -6.64032,2.70539 -4.26882,-3.60722 -10.43476,5.11025 -9.48611,0.60118 -10.19771,-6.61321 -10.90905,-0.90184 -13.04341,-0.90177 -12.09493,0.30059 -10.19763,-6.9138 -2.3715,-1.50303 -7.35183,0.30059 -11.38333,-0.90177 -5.69176,-0.90183 -16.6008,-9.61927 -5.21738,-3.90776 c 0,0 -2.13437,-12.02406 -3.08302,-12.32465 -0.94857,-0.30065 -4.74301,0.30059 -4.74301,0.30059 l -4.7431,-2.40486 1.89722,-11.7234 -4.03167,-9.31866 -1.65999,-2.10421 -4.98024,0.60118 -7.1147,-5.71136 -0.47428,-4.50907 -3.5573,-6.61322 v -11.12223 l 7.58889,-2.40481 4.26881,-10.52104 -3.79444,-3.90783 -11.8577,3.30662 -3.79454,5.41082 -13.75492,4.50903 -13.99207,10.22044 -7.1146,0.90178 -0.47437,3.90781 h -4.50587 l -2.60874,-3.30656 -12.09484,-4.50907 -9.01182,4.80966 -4.03168,-4.50901 h -2.84579 l -5.21747,8.71742 -4.74301,1.50302 -3.08302,-2.70546 -5.45452,-1.20236 -9.24906,3.90782 -8.77468,0.90178 -9.4862,14.12826 0.71152,7.81564 -3.08302,3.90782 v 8.71742 l -4.50596,5.11025 -1.42294,6.61321 -7.35174,-2.1042 -9.01183,2.70538 -3.55739,-3.00597 -5.21738,-0.60125 -2.37151,-3.60717 -3.5573,2.10421 -3.08302,-0.90183 3.32016,-5.41086 -0.71151,-3.60716 -5.45452,-1.80361 -3.55731,-4.50901 -6.64032,-0.30065 -7.1146,4.50907 -8.06326,-0.60125 -4.7431,-4.20841 -0.71142,-3.30658 2.84588,-9.31867 -6.16604,-6.31262 -0.71143,-3.90782 -5.45461,-4.509 -2.13436,0.90177 -1.89722,-0.30059 -2.608741,9.01808 -2.845787,3.00597 0.711424,3.60724 -1.897221,0.90177 -6.40318,-1.50295 -1.422938,6.31261 -0.237142,6.01203 -4.980222,1.80362 -4.268771,4.2084 -5.682241,-0.11983 -3.092461,-3.1868 -3.79447,-0.30059 -0.23715,-2.70545 -5.217391,-5.71138 h -2.6087 l -2.371541,-2.40486 -5.217391,0.60124 -2.84585,-5.71143 -2.84585,-0.60118 -0.237151,-6.01203 v -2.70545 l 1.897231,-4.50901 -3.083001,-6.01203 -5.2174,-0.30059 -4.505921,-3.30663 h -3.79447 l -9.486162,-6.012 -4.031621,1.2024 -4.2687801,-0.9018 2.3715401,-8.11622 -0.23715,-5.71143 -0.71146,-3.90781 -3.3201607,-5.11023 -2.13439,-2.70542 0.4743099,-8.41682 -3.3201513,-4.80963 1.6600712,-3.30661 L 0,426.8537 l 3.3201603,-7.21441 3.5573107,-5.41083 3.0830008,-9.01804 3.3201602,-0.6012 4.031621,-1.80361 v -5.11022 l -3.557311,-5.41081 1.422921,-7.21444 -6.6403209,-2.70541 -3.5573107,-5.41082 -1.1857612,-3.00602 1.6600711,-6.91382 5.2173997,0.6012 12.806313,-0.9018 2.84586,-6.61323 2.134381,-6.31262 5.217391,-0.3006 2.13439,3.30661 -0.23716,5.71142 4.74309,3.60722 2.845842,-3.00601 2.608699,4.20841 5.454551,-3.30662 1.42292,4.50903 3.794471,3.30661 v 5.11022 l 1.18577,2.1042 3.32016,-3.00601 h 1.897231 v 4.50902 l 3.557319,1.50301 1.897231,3.30661 0.71146,5.71142 -4.03162,3.30661 2.608691,2.70542 0.47431,8.71743 2.60869,-3.60721 4.505931,0.9018 3.083001,-5.11021 5.2174,1.8036 1.185788,4.80962 -2.845868,6.61323 0.94861,5.11022 -0.94861,3.00602 -3.08301,0.90179 -1.660071,2.70542 v 3.30661 l 0.03277,-0.0182 z"
         style="fill:#003399;fill-opacity:1;stroke:none;stroke-width:1"
         id="path1538" />
    </clipPath>
  </defs>
  <g
     id="g1432"
     transform="scale(1.1077778,0.87284556)"
     clip-path="url(#clipPath1536)">
    <rect
       fill="#c8102e"
       width="900"
       height="600"
       id="rect1420"
       x="0"
       y="0"
       style="stroke-width:1.03421" />
    <rect
       fill="#ffffff"
       y="200"
       width="900"
       height="200"
       id="rect1422"
       x="0"
       style="stroke-width:1.03421" />
  </g>
</svg>
